<?xml version="1.0" encoding="UTF-8" standalone="no"?>
<svg
   xmlns:dc="http://purl.org/dc/elements/1.1/"
   xmlns:cc="http://creativecommons.org/ns#"
   xmlns:rdf="http://www.w3.org/1999/02/22-rdf-syntax-ns#"
   xmlns:svg="http://www.w3.org/2000/svg"
   xmlns="http://www.w3.org/2000/svg"
   xmlns:sodipodi="http://sodipodi.sourceforge.net/DTD/sodipodi-0.dtd"
   xmlns:inkscape="http://www.inkscape.org/namespaces/inkscape"
   version="1.1"
   id="Capa_1"
   x="0px"
   y="0px"
   viewBox="0 0 512 512"
   style="enable-background:new 0 0 512 512;"
   xml:space="preserve"
   width="512px"
   height="512px"
   class=""
   sodipodi:docname="yogur.svg"
   inkscape:version="0.92.3 (2405546, 2018-03-11)"><metadata
   id="metadata917"><rdf:RDF><cc:Work
       rdf:about=""><dc:format>image/svg+xml</dc:format><dc:type
         rdf:resource="http://purl.org/dc/dcmitype/StillImage" /></cc:Work></rdf:RDF></metadata><defs
   id="defs915" /><sodipodi:namedview
   pagecolor="#ffffff"
   bordercolor="#666666"
   borderopacity="1"
   objecttolerance="10"
   gridtolerance="10"
   guidetolerance="10"
   inkscape:pageopacity="0"
   inkscape:pageshadow="2"
   inkscape:window-width="1366"
   inkscape:window-height="716"
   id="namedview913"
   showgrid="false"
   inkscape:snap-text-baseline="false"
   inkscape:zoom="1.0292969"
   inkscape:cx="243.37002"
   inkscape:cy="256"
   inkscape:window-x="0"
   inkscape:window-y="0"
   inkscape:window-maximized="1"
   inkscape:current-layer="Capa_1" /><g
   id="g910"><path
     style="fill:#F9ECD4;"
     d="M369.772,459.592H142.23c-4.15,0-7.513,3.364-7.513,7.513v37.382c0,4.149,3.363,7.513,7.513,7.513  h227.542c4.149,0,7.513-3.364,7.513-7.513v-37.382C377.285,462.956,373.921,459.592,369.772,459.592z"
     data-original="#F9ECD4"
     class=""
     id="path886" /><path
     style="fill:#F7E0BA;"
     d="M369.772,459.592h-36.064V512h36.064c4.149,0,7.513-3.364,7.513-7.513v-37.382  C377.285,462.956,373.921,459.592,369.772,459.592z"
     data-original="#F7E0BA"
     class=""
     id="path888" /><path
     style="fill:#C6946A;"
     d="M404.742,11.991C399.537,4.482,390.975,0,381.838,0c-11.561,0-22.051,7.274-26.103,18.099  l-34.411,91.906c-0.864,2.307-0.542,4.891,0.862,6.915c1.404,2.025,3.711,3.233,6.174,3.233h43.477c3.134,0,5.938-1.944,7.036-4.879  l29.066-77.628C411.144,29.089,409.948,19.499,404.742,11.991z"
     data-original="#C6946A"
     class=""
     id="path890" /><path
     style="fill:#B27C57;"
     d="M404.742,11.991C399.537,4.482,390.975,0,381.838,0c-5.593,0-10.928,1.715-15.412,4.699  c2.874,1.918,5.41,4.373,7.433,7.291c5.206,7.508,6.402,17.098,3.198,25.656l-29.066,77.628c-1.099,2.934-3.903,4.879-7.036,4.879  h30.884c3.134,0,5.938-1.944,7.036-4.879l29.066-77.628C411.144,29.089,409.948,19.499,404.742,11.991z"
     data-original="#B27C57"
     class=""
     id="path892" /><path
     style="fill:#266183"
     d="M422.178,138.98c-1.423-1.54-3.423-2.415-5.52-2.415H95.342c-2.097,0-4.097,0.876-5.52,2.415  c-1.423,1.541-2.137,3.604-1.971,5.694l24.235,304.581c1.132,14.222,13.195,25.364,27.462,25.364H372.45  c14.267,0,26.33-11.142,27.462-25.364l24.235-304.581C424.315,142.584,423.601,140.521,422.178,138.98z"
     data-original="#73CDFF"
     class="active-path"
     data-old_color="#002DFF"
     id="path894" /><g
     id="g900">
	<path
   style="fill:#FFD100"
   d="M422.178,138.98c-1.423-1.54-3.423-2.415-5.52-2.415h-43.993c2.097,0,4.097,0.876,5.52,2.415   c1.423,1.541,2.137,3.604,1.971,5.694L355.92,449.255c-1.132,14.222-13.194,25.364-27.462,25.364h43.993   c14.267,0,26.33-11.142,27.462-25.364l24.235-304.581C424.315,142.584,423.601,140.521,422.178,138.98z"
   data-original="#36C2FF"
   class=""
   data-old_color="#FFD800"
   id="path896" />
	<path
   style="fill:#FFD100"
   d="M63.757,120.208c-3.117,0-4.965-0.047-5.329-0.057c-4.147-0.117-7.413-3.573-7.297-7.721   s3.543-7.408,7.72-7.3c0.489,0.014,49.35,1.21,104.984-10.947c32.41-7.082,60.735-17.242,84.192-30.199   c28.862-15.942,50.357-36.183,63.884-60.162c2.04-3.613,6.624-4.892,10.235-2.852c3.614,2.039,4.892,6.621,2.853,10.235   c-14.941,26.484-38.444,48.696-69.858,66.018c-24.776,13.661-54.523,24.33-88.412,31.709   C119.559,119.204,78.146,120.208,63.757,120.208z"
   data-original="#36C2FF"
   class=""
   data-old_color="#FFD800"
   id="path898" />
</g><path
     style="fill:#F9ECD4;"
     d="M413.599,246.802c-1.423-1.54-3.423-2.415-5.52-2.415H335.61c-18.666-25.196-48.13-40.12-79.61-40.12  s-60.944,14.924-79.61,40.12h-72.469c-2.097,0-4.097,0.876-5.52,2.415c-1.423,1.541-2.137,3.604-1.971,5.694l8.18,102.803  c0.312,3.906,3.571,6.917,7.49,6.917h64.29c18.666,25.196,48.13,40.12,79.61,40.12s60.944-14.924,79.61-40.12h64.29  c3.918,0,7.179-3.011,7.49-6.917l8.18-102.803C415.735,250.405,415.02,248.342,413.599,246.802z"
     data-original="#F9ECD4"
     class=""
     id="path902" /><path
     style="fill:#F7E0BA;"
     d="M413.599,246.802c-1.423-1.54-3.423-2.415-5.52-2.415h-35.858l-9.376,117.83h37.054  c3.918,0,7.179-3.011,7.49-6.917l8.18-102.803C415.735,250.405,415.02,248.342,413.599,246.802z"
     data-original="#F7E0BA"
     class=""
     id="path904" /><path
     style="fill:#F9ECD4;"
     d="M453.362,105.127H58.639c-4.15,0-7.513,3.364-7.513,7.513v31.438c0,4.149,3.363,7.513,7.513,7.513  h394.723c4.149,0,7.513-3.364,7.513-7.513V112.64C460.875,108.491,457.511,105.127,453.362,105.127z"
     data-original="#F9ECD4"
     class=""
     id="path906" /><path
     style="fill:#F7E0BA;"
     d="M453.362,105.127h-36.064v46.465h36.064c4.149,0,7.513-3.364,7.513-7.513V112.64  C460.875,108.491,457.511,105.127,453.362,105.127z"
     data-original="#F7E0BA"
     class=""
     id="path908" /></g> <text
   xml:space="preserve"
   style="font-style:normal;font-variant:normal;font-weight:bold;font-stretch:normal;font-size:90.07293701px;line-height:1.25;font-family:'Fira Code';-inkscape-font-specification:'Fira Code, Bold';font-variant-ligatures:normal;font-variant-caps:normal;font-variant-numeric:normal;font-feature-settings:normal;text-align:start;letter-spacing:0px;word-spacing:0px;writing-mode:lr-tb;text-anchor:start;fill:#266183;fill-opacity:1;stroke:none;stroke-width:1.87651944"
   x="171.64044"
   y="338.56326"
   id="text921"
   transform="scale(1.0159829,0.98426853)"><tspan
     sodipodi:role="line"
     id="tspan919"
     x="171.64044"
     y="338.56326"
     style="stroke-width:1.87651944">APP</tspan></text>
</svg>